<svg aria-hidden="true" style="position: absolute; width: 0; height: 0; overflow: hidden;" version="1.1" xmlns="http://www.w3.org/2000/svg" xmlns:xlink="http://www.w3.org/1999/xlink">
<defs>
<symbol id="icon-Ellipse-2" viewBox="0 0 32 32">
<path d="M32 16c0 8.837-7.163 16-16 16s-16-7.163-16-16c0-8.837 7.163-16 16-16s16 7.163 16 16z"></path>
</symbol>
<symbol id="icon-Arrow-1" viewBox="0 0 45 32">
<path d="M44.081 17.414c0.781-0.781 0.781-2.047 0-2.829l-12.728-12.728c-0.781-0.781-2.047-0.781-2.828 0s-0.781 2.047 0 2.828l11.314 11.314-11.314 11.314c-0.781 0.781-0.781 2.047 0 2.828s2.047 0.781 2.828 0l12.728-12.728zM0 18h42.667v-4h-42.667v4z"></path>
</symbol>
<symbol id="icon-in" viewBox="0 0 32 32">
<path d="M6.526 30.983h-5.724v-21.355h5.724v21.355zM0.467 4.101c0-0.855 0.283-1.559 0.849-2.112 0.579-0.553 1.362-0.829 2.349-0.829 0.974 0 1.75 0.276 2.329 0.829s0.868 1.257 0.868 2.112c0 0.868-0.296 1.579-0.888 2.132-0.579 0.553-1.349 0.829-2.309 0.829s-1.737-0.276-2.329-0.829c-0.579-0.553-0.868-1.263-0.868-2.132zM17.302 9.627l0.178 2.467c1.526-1.908 3.572-2.862 6.138-2.862 2.263 0 3.947 0.664 5.053 1.993s1.671 3.316 1.697 5.961v13.796h-5.704v-13.658c0-1.21-0.263-2.085-0.79-2.625-0.526-0.553-1.401-0.829-2.625-0.829-1.605 0-2.809 0.684-3.612 2.053v15.059h-5.704v-21.355h5.368z"></path>
</symbol>
<symbol id="icon-Star-11" viewBox="0 0 35 32">
<path d="M17.569 0l4.085 12.145h13.22l-10.695 7.506 4.085 12.145-10.695-7.506-10.695 7.506 4.085-12.145-10.695-7.506h13.22l4.085-12.145z"></path>
</symbol>
<symbol id="icon-twtr_icon" viewBox="0 0 38 32">
<path d="M34.179 8.314c0.024 0.338 0.024 0.677 0.024 1.015 0 10.321-7.856 22.214-22.214 22.214-4.423 0-8.533-1.281-11.989-3.505 0.628 0.073 1.233 0.097 1.885 0.097 3.65 0 7.010-1.233 9.693-3.336-3.432-0.073-6.309-2.32-7.3-5.415 0.484 0.072 0.967 0.121 1.475 0.121 0.701 0 1.402-0.097 2.055-0.266-3.577-0.725-6.261-3.868-6.261-7.663v-0.097c1.039 0.58 2.248 0.943 3.529 0.991-2.103-1.402-3.481-3.795-3.481-6.502 0-1.45 0.387-2.78 1.064-3.94 3.843 4.738 9.621 7.832 16.099 8.17-0.121-0.58-0.193-1.184-0.193-1.789 0-4.303 3.481-7.808 7.808-7.808 2.248 0 4.278 0.943 5.705 2.466 1.765-0.338 3.457-0.991 4.955-1.885-0.58 1.813-1.813 3.336-3.433 4.303 1.571-0.169 3.094-0.604 4.496-1.209-1.063 1.547-2.393 2.925-3.916 4.037z"></path>
</symbol>
<symbol id="icon-Vector-1" viewBox="0 0 31 32">
<path d="M15.229 7.968c-4.321 0-7.806 3.485-7.806 7.806s3.485 7.806 7.806 7.806c4.321 0 7.806-3.485 7.806-7.806s-3.485-7.806-7.806-7.806zM15.229 20.848c-2.792 0-5.075-2.276-5.075-5.075s2.276-5.075 5.075-5.075c2.799 0 5.075 2.276 5.075 5.075s-2.283 5.075-5.075 5.075zM25.175 7.648c0 1.012-0.815 1.821-1.821 1.821-1.012 0-1.821-0.815-1.821-1.821s0.815-1.821 1.821-1.821c1.005 0 1.821 0.815 1.821 1.821zM30.345 9.496c-0.115-2.439-0.673-4.599-2.459-6.379-1.78-1.78-3.94-2.337-6.379-2.459-2.514-0.143-10.048-0.143-12.561 0-2.432 0.116-4.592 0.673-6.379 2.452s-2.337 3.94-2.459 6.379c-0.143 2.514-0.143 10.048 0 12.561 0.115 2.439 0.673 4.599 2.459 6.379s3.94 2.337 6.379 2.459c2.514 0.143 10.048 0.143 12.561 0 2.439-0.115 4.599-0.673 6.379-2.459 1.78-1.78 2.337-3.94 2.459-6.379 0.143-2.514 0.143-10.041 0-12.554zM27.097 24.748c-0.53 1.331-1.556 2.357-2.894 2.894-2.004 0.795-6.759 0.611-8.974 0.611s-6.977 0.177-8.974-0.611c-1.332-0.53-2.357-1.556-2.894-2.894-0.795-2.004-0.611-6.759-0.611-8.974s-0.177-6.977 0.611-8.974c0.53-1.332 1.556-2.357 2.894-2.894 2.004-0.795 6.759-0.611 8.974-0.611s6.977-0.177 8.974 0.611c1.332 0.53 2.357 1.556 2.894 2.894 0.795 2.004 0.611 6.76 0.611 8.974s0.183 6.977-0.611 8.974z"></path>
</symbol>
<symbol id="icon-Vector" viewBox="0 0 17 32">
<path d="M15.4 17.795l0.855-5.569h-5.343v-3.614c0-1.523 0.746-3.008 3.139-3.008h2.429v-4.741c0 0-2.204-0.376-4.312-0.376-4.4 0-7.276 2.667-7.276 7.495v4.244h-4.891v5.569h4.891v13.462h6.020v-13.462h4.489z"></path>
</symbol>
</defs>
</svg>
